#N canvas 0 0 1892 963 10;
#X msg 995 509 set \$1;
#X msg 1181 567 set \$1;
#X obj 950 751 tabread4~;
#X obj 1136 764 tabread4~;
#X text 999 453 left channel;
#X text 1179 513 right channel;
#X obj 942 1099 outlet~;
#X obj 1149 1105 outlet~;
#X text 943 1127 left output;
#X obj 1009 811 cos~;
#X obj 1007 867 +~ 0.5;
#X obj 1009 842 *~ -0.5;
#X obj 944 974 *~;
#X obj 1149 974 *~, f 4;
#X text 1146 1127 right output;
#X obj 50 950 vline~, f 10;
#X msg 297 838 \$1 0 0;
#X obj 296 814 f;
#X obj 881 680 *~;
#X floatatom 314 1042 5 0 0 0 - - -, f 5;
#X obj 177 1043 hsl 128 15 0 1 0 0 empty empty empty -2 -8 0 10 -262144
-1 -1 0 1;
#X obj 53 820 pack float float;
#X obj 67 23 inlet;
#X obj 66 99 unpack float float float;
#X obj 438 26 inlet;
#X text 497 26 samplesize;
#X obj 895 646 r \$0-samplesize;
#X obj 499 198 s \$0-samplesize;
#X obj 560 174 s \$0-left-channel;
#X obj 624 153 s \$0-right-channel;
#X obj 995 478 r \$0-left-channel;
#X obj 1177 541 r \$0-right-channel;
#X obj 47 1034 s~ \$0-playing;
#X obj 881 621 r~ \$0-playing;
#X obj 60 511 +, f 12;
#X obj 438 123 unpack float float symbol symbol;
#X obj 438 225 s \$0-length-sc;
#X obj 206 125 s \$0-grain-speed;
#X obj 66 176 s \$0-grain-start;
#X obj 59 235 r \$0-grain-start;
#X obj 214 290 r \$0-length-sc;
#X obj 214 312 * 1000;
#X obj 58 597 *, f 8;
#X obj 102 545 r \$0-grain-speed;
#X obj 103 571 expr abs($f1);
#X obj 129 483 *, f 10;
#X obj 186 427 r \$0-grain-speed;
#X obj 186 453 expr $f1 / abs($f1);
#X text 207 547 endpunkt des grains im sample an grain-speed anpassen
, f 18;
#X text 311 436 bei negativem grain-speed wird der grain rückwärts
abgespielt, f 20;
#X obj 129 347 /, f 15;
#X text 153 207 zielpunkt des grains berechnen;
#X msg 51 852 \$1 \$2 0;
#X obj 57 628 s \$0-grain-end;
#X obj 59 686 r \$0-grain-end;
#X text 1055 692 grain abspielen;
#X obj 57 751 trigger float bang, f 41;
#X floatatom 169 630 5 0 0 0 - - -, f 5;
#X obj 312 787 r \$0-grain-start;
#X text 1232 994 panning hier hinzufügen;
#X text 1240 1022 lautstärke hier hinzufügen;
#X text 1045 813 hanning window;
#X obj 1005 940 hsl 63 17 0 1 0 0 empty empty empty -2 -8 0 10 -262144
-1 -1 0 1;
#X obj 1004 915 unsig~ 0.1;
#X text 308 286 grain-laenge wird in ms angegeben, f 22;
#X msg 578 11 2 2000 blah-L blah-R, f 44;
#X text 992 189 to-o: no voice stealing!!! dont start new grian if
grain is active create an use "normalized-playing" for this!!!;
#X text 959 285 maybe schedule grains in a different way... after grain
startet grain density should still influence when next grian starts?
;
#X obj 550 452 r~ \$0-playing;
#X obj 550 497 -~;
#X obj 560 476 r \$0-grain-start;
#X obj 550 571 /~, f 13;
#X obj 628 499 r \$0-grain-end;
#X obj 644 521 r \$0-grain-start;
#X obj 629 546 -~;
#X obj 550 594 s~ \$0-playing-normalized;
#X obj 1008 646 r~ \$0-playing-normalized;
#X obj 942 1057 *~ 0.3;
#X obj 1150 1046 *~ 0.3;
#X obj 528 731 r~ \$0-playing-normalized;
#X obj 131 264 r \$0-grain-length-ms;
#X obj 136 149 s \$0-grain-length-ms;
#X obj 151 781 r \$0-grain-length-ms;
#X obj 530 801 edge~;
#X obj 664 761 unsig~ 0.1;
#X floatatom 664 786 5 0 0 0 - - -, f 5;
#X obj 529 766 expr~ ($v1 == 1);
#X obj 531 931 tgl 30 0 empty empty empty 17 7 0 10 -262144 -1 -1 0
1;
#X obj 116 65 spigot;
#X text 635 825 grain kann nicht gestoppt werden nachem es abgespielt
wurde, f 25;
#X obj 529 998 s grain-ready;
#X obj 214 18 r grain-ready;
#X obj 488 97 spigot;
#X obj 499 55 r grain-ready;
#X floatatom 530 974 5 0 0 0 - - -, f 5;
#X floatatom 213 65 5 0 0 0 - - -, f 5;
#X obj 441 988 spigot;
#X floatatom 441 1013 5 0 0 0 - - -, f 5;
#X floatatom 453 943 5 0 0 0 - - -, f 5;
#X msg 164 53 1;
#X msg 628 47 1;
#X text 241 884 maybe vline goes from 0 to 1 and the actual ample positions
i calculated after that \, so we dont have to calculate the normalized
playing variable alter, f 31;
#X obj 750 800 hsl 128 15 0 1 0 0 empty empty empty -2 -8 0 10 -262144
-1 -1 0 1;
#X msg 131 19 0 1000 1;
#X obj 175 994 unsig~ 0.1;
#X floatatom 595 665 5 0 0 0 - - -, f 5;
#X obj 458 666 hsl 128 15 0 1 0 0 empty empty empty -2 -8 0 10 -262144
-1 -1 0 1;
#X obj 456 617 unsig~ 0.1;
#X obj 649 388 hsl 128 15 0 1 0 0 empty empty empty -2 -8 0 10 -262144
-1 -1 0 1;
#X obj 647 339 unsig~ 0.1;
#X floatatom 801 392 5 0 0 0 - - -, f 5;
#X obj 324 177 print;
#X obj 128 372 s \$0-grain-length;
#X obj 127 400 r \$0-grain-length;
#X connect 0 0 2 0;
#X connect 1 0 3 0;
#X connect 2 0 12 0;
#X connect 3 0 13 0;
#X connect 9 0 11 0;
#X connect 10 0 13 1;
#X connect 10 0 12 1;
#X connect 11 0 10 0;
#X connect 12 0 77 0;
#X connect 13 0 78 0;
#X connect 15 0 32 0;
#X connect 16 0 15 0;
#X connect 17 0 16 0;
#X connect 18 0 2 0;
#X connect 18 0 3 0;
#X connect 21 0 52 0;
#X connect 22 0 23 0;
#X connect 23 0 38 0;
#X connect 23 1 81 0;
#X connect 23 2 37 0;
#X connect 24 0 35 0;
#X connect 26 0 18 1;
#X connect 30 0 0 0;
#X connect 31 0 1 0;
#X connect 33 0 18 0;
#X connect 34 0 42 0;
#X connect 35 0 36 0;
#X connect 35 1 27 0;
#X connect 35 2 28 0;
#X connect 35 3 29 0;
#X connect 39 0 34 0;
#X connect 40 0 41 0;
#X connect 41 0 50 1;
#X connect 42 0 53 0;
#X connect 43 0 44 0;
#X connect 44 0 42 1;
#X connect 45 0 34 1;
#X connect 46 0 47 0;
#X connect 47 0 45 1;
#X connect 50 0 112 0;
#X connect 52 0 15 0;
#X connect 54 0 56 0;
#X connect 56 0 21 0;
#X connect 56 1 17 0;
#X connect 58 0 17 1;
#X connect 63 0 62 0;
#X connect 65 0 92 0;
#X connect 65 0 35 0;
#X connect 68 0 69 0;
#X connect 69 0 71 0;
#X connect 70 0 69 1;
#X connect 71 0 75 0;
#X connect 72 0 74 0;
#X connect 73 0 74 1;
#X connect 74 0 71 1;
#X connect 76 0 9 0;
#X connect 77 0 6 0;
#X connect 78 0 7 0;
#X connect 79 0 86 0;
#X connect 80 0 50 0;
#X connect 82 0 21 1;
#X connect 83 0 87 0;
#X connect 83 1 87 0;
#X connect 84 0 85 0;
#X connect 84 0 102 0;
#X connect 86 0 83 0;
#X connect 87 0 94 0;
#X connect 87 0 96 1;
#X connect 91 0 95 0;
#X connect 94 0 90 0;
#X connect 96 0 97 0;
#X connect 98 0 96 0;
#X connect 99 0 88 1;
#X connect 100 0 92 1;
#X connect 103 0 88 0;
#X connect 103 0 23 0;
#X connect 104 0 19 0;
#X connect 104 0 20 0;
#X connect 107 0 105 0;
#X connect 107 0 106 0;
#X connect 109 0 108 0;
#X connect 109 0 110 0;
#X connect 113 0 45 0;
