#N canvas 2391 -1099 2390 1251 10;
#X obj 420 230 s \$0-grainSize;
#X obj 836 587 s \$0-grainSpeed;
#X obj 833 233 expr 1 / abs($f1) * 1000, f 25;
#X obj 357 301 expr $f1 + $f2;
#X obj 357 279 pack f f, f 27;
#X obj 543 253 s \$0-grainStart;
#X floatatom 219 177 5 0 0 0 - - -, f 5;
#X floatatom 375 180 5 0 0 0 - - -, f 5;
#X floatatom 530 183 5 0 0 0 - - -, f 5;
#X floatatom 840 256 5 0 0 0 - - -, f 5;
#X obj 241 936 vline~;
#X obj 675 187 t f f, f 27;
#X floatatom 846 187 5 0 0 0 - - -, f 5;
#X msg 324 897 \$1 0 0;
#X msg 237 881 \$1 \$2 0;
#X text 334 914 startPos;
#X text 248 898 playGrain;
#X obj 213 155 unpack f f f f, f 77;
#X obj 193 300 s \$0-trigger;
#X obj 390 500 spigot, f 13;
#X obj 290 502 spigot, f 13;
#X obj 484 421 r \$0-grainStart;
#X obj 393 576 s \$0-grainEnd;
#X floatatom 679 373 5 0 0 0 - - -, f 5;
#X obj 291 400 t b b, f 17;
#X obj 290 577 s \$0-grainStart;
#X obj 365 204 t f f, f 9;
#X obj 516 207 t f f;
#X obj 211 267 t b b, f 14;
#X obj 674 348 expr $f1 != abs($f1);
#X obj 391 454 f, f 16;
#X obj 291 427 f, f 11;
#X obj 561 391 == 0;
#X obj 491 496 spigot, f 13;
#X obj 367 363 t f f f, f 33;
#X obj 291 454 t f f, f 10;
#X text 498 445 this is just a compicated mess to invert grainStart
and grainEnd when grainSpeed is negative.., f 33;
#X obj 509 814 r \$0-grainStart;
#X obj 158 756 r \$0-grainEnd;
#X obj 302 766 r \$0-grainSpeed;
#X obj 495 847 f;
#X obj 286 820 f;
#X obj 229 784 f;
#X obj 237 857 pack f f;
#X obj 406 961 unsig~ 0.1;
#X floatatom 406 986 5 0 0 0 - - -, f 5;
#X text 356 122 arbitraryBang grainSize grainStart grainSpeed;
#X text 47 195 arbitraryBang isnt actually needed. playbck of grains
should be handled in the grainplayer, f 25;
#X obj 250 630 r \$0-trigger;
#X msg 347 14 1 2000 100 1;
#X msg 479 12 1 2000 100 -1;
#X obj 733 42 hradio 15 1 0 8 empty empty empty 0 -8 0 10 -262144 -1
-1 0;
#X floatatom 752 66 5 0 0 0 - - -, f 5;
#X obj 730 89 s \$0-hanningType;
#X obj 568 969 vline~;
#X obj 497 702 t b b, f 29;
#X msg 673 776 0 0 0;
#X obj 250 666 t b b, f 27;
#X obj 249 700 t b b, f 29;
#X obj 249 725 t b b;
#X msg 415 849 255 \$1 0;
#X obj 418 824 f;
#X obj 303 788 t f f, f 22;
#X obj 568 998 tabread4~ hanning;
#X obj 191 1095 *~, f 4;
#X obj 209 81 inlet;
#X obj 192 968 tabread4~ channelL;
#X obj 192 1163 outlet~;
#X obj 568 1023 unsig~ 0.1;
#X floatatom 568 1048 5 0 0 0 - - -, f 5;
#X obj 98 1019 unsig~ 0.1;
#X floatatom 98 1044 5 0 0 0 - - -, f 5;
#X connect 2 0 1 0;
#X connect 2 0 9 0;
#X connect 3 0 31 1;
#X connect 4 0 3 0;
#X connect 10 0 44 0;
#X connect 10 0 66 0;
#X connect 11 0 29 0;
#X connect 11 1 2 0;
#X connect 13 0 10 0;
#X connect 14 0 10 0;
#X connect 17 0 6 0;
#X connect 17 0 28 0;
#X connect 17 1 7 0;
#X connect 17 1 26 0;
#X connect 17 2 8 0;
#X connect 17 2 27 0;
#X connect 17 3 11 0;
#X connect 17 3 12 0;
#X connect 19 0 22 0;
#X connect 20 0 25 0;
#X connect 21 0 30 1;
#X connect 24 0 31 0;
#X connect 24 1 30 0;
#X connect 26 0 4 0;
#X connect 26 1 0 0;
#X connect 27 0 4 1;
#X connect 27 1 5 0;
#X connect 28 0 18 0;
#X connect 28 1 24 0;
#X connect 29 0 23 0;
#X connect 29 0 34 0;
#X connect 30 0 19 0;
#X connect 31 0 35 0;
#X connect 32 0 33 1;
#X connect 33 0 22 0;
#X connect 34 0 20 1;
#X connect 34 1 19 1;
#X connect 34 2 32 0;
#X connect 35 0 20 0;
#X connect 35 1 33 0;
#X connect 37 0 40 1;
#X connect 38 0 42 1;
#X connect 39 0 62 0;
#X connect 40 0 13 0;
#X connect 41 0 43 1;
#X connect 42 0 43 0;
#X connect 43 0 14 0;
#X connect 44 0 45 0;
#X connect 48 0 57 0;
#X connect 49 0 17 0;
#X connect 50 0 17 0;
#X connect 51 0 52 0;
#X connect 51 0 53 0;
#X connect 54 0 63 0;
#X connect 55 0 40 0;
#X connect 55 1 56 0;
#X connect 56 0 54 0;
#X connect 57 0 58 0;
#X connect 57 1 55 0;
#X connect 58 0 59 0;
#X connect 58 1 61 0;
#X connect 59 0 42 0;
#X connect 59 1 41 0;
#X connect 60 0 54 0;
#X connect 61 0 60 0;
#X connect 62 0 41 1;
#X connect 62 1 61 1;
#X connect 63 0 64 1;
#X connect 63 0 68 0;
#X connect 64 0 67 0;
#X connect 65 0 17 0;
#X connect 66 0 64 0;
#X connect 66 0 70 0;
#X connect 68 0 69 0;
#X connect 70 0 71 0;
