#N canvas 2391 -1099 2390 1251 10;
#X obj 478 207 phasor~;
#X obj 478 321 *~;
#X floatatom 778 83 14 0 0 0 - - -, f 14;
#X obj 484 403 +~;
#X floatatom 618 81 15 0 0 0 - - -, f 15;
#X text 618 33 GrainPosition in Samples;
#X text 778 32 GrainSize in Samples;
#X text 477 33 Frequenz / Tonhöhe;
#X obj 918 83 bng 60 250 50 0 empty empty empty 17 7 0 10 -262144 -1
-1;
#X text 917 30 play;
#X floatatom 477 85 5 0 0 0 - - -, f 5;
#X obj 797 190 edge~;
#X obj 383 122 bng 15 250 50 0 empty empty empty 17 7 0 10 -262144
-1 -1;
#X obj 749 262 expr~ $v1 < 0.5;
#X msg 515 166 0;
#X obj 478 586 outlet~;
#X obj 618 54 inlet;
#X obj 779 56 inlet;
#X obj 477 56 inlet;
#X obj 918 54 inlet;
#X obj 481 510 tabread4~ kanalL;
#X obj 408 427 unsig~;
#X floatatom 396 470 12 0 0 0 - - -, f 12;
#X obj 578 303 unsig~;
#X floatatom 585 352 9 0 0 0 - - -, f 9;
#X msg 384 149 0;
#X connect 0 0 1 0;
#X connect 0 0 13 0;
#X connect 0 0 23 0;
#X connect 1 0 3 0;
#X connect 2 0 1 1;
#X connect 3 0 20 0;
#X connect 3 0 21 0;
#X connect 4 0 3 1;
#X connect 8 0 10 0;
#X connect 8 0 14 0;
#X connect 10 0 0 0;
#X connect 11 0 12 0;
#X connect 12 0 25 0;
#X connect 12 0 14 0;
#X connect 13 0 11 0;
#X connect 14 0 0 1;
#X connect 16 0 4 0;
#X connect 17 0 2 0;
#X connect 18 0 10 0;
#X connect 19 0 8 0;
#X connect 20 0 15 0;
#X connect 21 0 22 0;
#X connect 23 0 24 0;
#X connect 25 0 0 0;
