#N canvas -9 -9 1910 981 10;
#X text 409 23 GrainPosition in Samples;
#X text 257 22 GrainSize in Samples;
#X text 579 20 Frequenz / Tonhöhe;
#X text 178 16 play;
#X floatatom 572 178 5 0 0 0 - - -, f 5;
#X obj 175 1019 outlet~;
#X obj 409 44 inlet;
#X obj 258 46 inlet;
#X obj 579 43 inlet;
#X obj 179 40 inlet;
#X obj 174 985 tabread4~ kanalL;
#X obj 174 943 vline~;
#X floatatom 260 180 5 0 0 0 - - -, f 5;
#X floatatom 403 180 5 0 0 0 - - -, f 5;
#X obj 236 345 expr $f1 + $f2;
#X obj 234 254 pack f f, f 31;
#X floatatom 202 360 5 0 0 0 - - -, f 5;
#X msg 469 899 0, f 6;
#X obj 144 58 bng 36 250 50 0 empty empty empty 17 7 0 10 -262144 -1
-1;
#X obj 173 850 pack f f, f 10;
#X msg 172 883 \$1 \$2 0;
#X msg 307 884 \$1;
#X floatatom 577 254 5 0 0 0 - - -, f 5;
#X obj 86 979 unsig~;
#X floatatom -7 1011 18 0 0 0 - - -, f 18;
#X text -61 1057 wenn die frequenz negativ ist wird startPosition und
Zielposition vertauscht;
#X text 340 889 Startposition;
#X text 81 885 Zielposition;
#X obj 309 774 f;
#X obj 176 781 f;
#X obj 46 702 spigot;
#X obj 549 589 == 0;
#X obj 517 614 spigot;
#X obj 523 721 spigot;
#X obj 84 585 == 0;
#X obj 51 607 spigot;
#X obj 770 222 expr $f1 == abs($f1);
#X floatatom 145 797 5 0 0 0 - - -, f 5;
#X floatatom 280 790 5 0 0 0 - - -, f 5;
#X floatatom 741 239 5 0 0 0 - - -, f 5;
#X obj 515 234 expr 1 / abs($f1) * 1000;
#X floatatom 15 718 5 0 0 0 - - -, f 5;
#X floatatom 19 623 5 0 0 0 - - -, f 5;
#X floatatom 487 631 5 0 0 0 - - -, f 5;
#X floatatom 492 737 5 0 0 0 - - -, f 5;
#X obj 769 378 s \$0-sign;
#X obj 394 382 s \$0-startGrain;
#X obj 235 378 s \$0-endGrain;
#X obj 523 382 s \$0-grainSpeed;
#X obj 239 608 r \$0-grainSpeed;
#X obj 46 653 r \$0-endGrain, f 15;
#X obj 520 541 r \$0-startGrain;
#X obj 524 671 r \$0-startGrain;
#X obj 50 538 r \$0-endGrain, f 15;
#X obj 79 676 r \$0-sign;
#X obj 85 560 r \$0-sign;
#X obj 550 566 r \$0-sign, f 10;
#X obj 557 697 r \$0-sign;
#X obj 176 521 t b b b, f 49;
#X msg 1105 216 1;
#X msg 962 219 0, f 4;
#X obj 180 135 t b b b b b b, f 131;
#X connect 4 0 36 0;
#X connect 4 0 40 0;
#X connect 6 0 13 0;
#X connect 7 0 12 0;
#X connect 8 0 4 0;
#X connect 9 0 18 0;
#X connect 9 0 61 0;
#X connect 10 0 5 0;
#X connect 11 0 10 0;
#X connect 11 0 23 0;
#X connect 12 0 15 1;
#X connect 13 0 46 0;
#X connect 13 0 15 0;
#X connect 14 0 16 0;
#X connect 14 0 47 0;
#X connect 15 0 14 0;
#X connect 17 0 11 0;
#X connect 19 0 20 0;
#X connect 20 0 11 0;
#X connect 21 0 11 0;
#X connect 23 0 24 0;
#X connect 28 0 38 0;
#X connect 28 0 21 0;
#X connect 29 0 37 0;
#X connect 29 0 19 0;
#X connect 30 0 29 1;
#X connect 30 0 41 0;
#X connect 31 0 32 1;
#X connect 32 0 29 1;
#X connect 32 0 43 0;
#X connect 33 0 28 1;
#X connect 33 0 44 0;
#X connect 34 0 35 1;
#X connect 35 0 28 1;
#X connect 35 0 42 0;
#X connect 36 0 39 0;
#X connect 36 0 45 0;
#X connect 40 0 22 0;
#X connect 40 0 48 0;
#X connect 49 0 19 1;
#X connect 50 0 30 0;
#X connect 51 0 32 0;
#X connect 52 0 33 0;
#X connect 53 0 35 0;
#X connect 54 0 30 1;
#X connect 55 0 34 0;
#X connect 56 0 31 0;
#X connect 57 0 33 1;
#X connect 58 0 29 0;
#X connect 58 1 28 0;
#X connect 58 2 17 0;
#X connect 59 0 45 0;
#X connect 60 0 46 0;
#X connect 60 0 47 0;
#X connect 61 0 58 0;
#X connect 61 1 12 0;
#X connect 61 2 13 0;
#X connect 61 3 4 0;
#X connect 61 4 60 0;
#X connect 61 5 59 0;
