#N canvas 2391 -1202 2390 1251 10;
#X msg 995 509 set \$1;
#X msg 1181 567 set \$1;
#X obj 950 751 tabread4~;
#X obj 1136 764 tabread4~;
#X text 999 453 left channel;
#X text 1179 513 right channel;
#X obj 942 1099 outlet~;
#X obj 1149 1105 outlet~;
#X text 943 1127 left output;
#X obj 1009 811 cos~;
#X obj 1007 867 +~ 0.5;
#X obj 1009 842 *~ -0.5;
#X obj 944 974 *~;
#X obj 1149 974 *~, f 4;
#X text 1146 1127 right output;
#X obj 50 893 vline~, f 10;
#X msg 297 838 \$1 0 0;
#X obj 296 814 f;
#X obj 881 680 *~;
#X floatatom 275 950 5 0 0 0 - - -, f 5;
#X obj 138 951 hsl 128 15 0 1 0 0 empty empty empty -2 -8 0 10 -262144
-1 -1 3175 1;
#X obj 138 928 unsig~ 0.1, f 11;
#X obj 53 820 pack float float;
#X obj 67 23 inlet;
#X obj 71 51 unpack float float float;
#X obj 438 26 inlet;
#X text 497 26 samplesize;
#X obj 895 646 r \$0-samplesize;
#X obj 501 151 s \$0-samplesize;
#X obj 562 127 s \$0-left-channel;
#X obj 626 106 s \$0-right-channel;
#X obj 995 478 r \$0-left-channel;
#X obj 1177 541 r \$0-right-channel;
#X obj 47 977 s~ \$0-playing;
#X obj 881 621 r~ \$0-playing;
#X obj 1500 951 outlet, f 10;
#X text 1500 973 trigger new grain;
#X obj 60 511 +, f 12;
#X obj 438 60 unpack float float symbol symbol;
#X obj 437 178 s \$0-length-sc;
#X obj 211 77 s \$0-grain-speed;
#X obj 141 101 s \$0-grain-length;
#X obj 75 128 s \$0-grain-start;
#X obj 59 276 r \$0-grain-start;
#X obj 131 305 r \$0-grain-length;
#X obj 214 331 r \$0-length-sc;
#X obj 214 353 * 1000;
#X obj 58 597 *, f 8;
#X obj 102 545 r \$0-grain-speed;
#X obj 103 571 expr abs($f1);
#X obj 129 483 *, f 10;
#X obj 186 427 r \$0-grain-speed;
#X obj 186 453 expr $f1 / abs($f1);
#X text 207 547 endpunkt des grains im sample an grain-speed anpassen
, f 18;
#X text 311 436 bei negativem grain-speed wird der grain rückwärts
abgespielt, f 20;
#X obj 129 388 /, f 15;
#X text 153 248 zielpunkt des grains berechnen;
#X msg 51 852 \$1 \$2 0;
#X obj 57 628 s \$0-grain-end;
#X obj 59 686 r \$0-grain-end;
#X text 1055 692 grain abspielen;
#X obj 57 751 trigger float bang, f 41;
#X floatatom 169 630 5 0 0 0 - - -, f 5;
#X obj 312 787 r \$0-grain-start;
#X obj 145 792 r \$0-grain-length;
#X obj 1489 630 r~ \$0-playing;
#X obj 1490 675 -~;
#X obj 1505 654 r \$0-grain-start;
#X obj 1493 749 /~, f 13;
#X obj 1567 677 r \$0-grain-end;
#X obj 1583 699 r \$0-grain-start;
#X obj 1568 724 -~;
#X obj 1606 780 unsig~ 0.1;
#X floatatom 1745 805 5 0 0 0 - - -, f 5;
#X obj 1605 806 hsl 128 15 0 1 0 0 empty empty empty -2 -8 0 10 -262144
-1 -1 12700 1;
#X msg 131 19 0 1000 0.5;
#X obj 1542 903 bng 25 250 50 0 empty empty empty 17 7 0 10 -262144
-1 -1;
#X obj 1497 868 edge~;
#X obj 1495 846 expr~ $v1 > $f2;
#X obj 1605 827 hsl 128 15 0 1 0 0 empty empty empty -2 -8 0 10 -262144
-1 -1 6350 1;
#X floatatom 1745 851 5 0 0 0 - - -, f 5;
#X text 1687 718 berechnen \, wann neuer grain gestartet werden kann
, f 20;
#X text 1232 994 panning hier hinzufügen;
#X text 1240 1022 lautstärke hier hinzufügen;
#X obj 1028 540 print;
#X msg 1519 812 0.5;
#X text 1045 813 hanning window;
#X obj 1005 940 hsl 63 17 0 1 0 0 empty empty empty -2 -8 0 10 -262144
-1 -1 0 1;
#X obj 1004 915 unsig~ 0.1;
#X text 308 327 grain-laenge wird in ms angegeben, f 22;
#X msg 612 23 2 2000 blah-L blah-R, f 44;
#X obj 1517 784 bng 15 250 50 0 empty empty empty 17 7 0 10 -262144
-1 -1;
#X text 992 189 to-o: no voice stealing!!! dont start new grian if
grain is active create an use "normalized-playing" for this!!!;
#X text 959 285 maybe schedule grains in a different way... after grain
startet grain density should still influence when next grian starts?
;
#X obj 550 452 r~ \$0-playing;
#X obj 550 497 -~;
#X obj 560 476 r \$0-grain-start;
#X obj 550 571 /~, f 13;
#X obj 628 499 r \$0-grain-end;
#X obj 644 521 r \$0-grain-start;
#X obj 629 546 -~;
#X obj 550 594 s~ \$0-playing-normalized;
#X obj 1008 646 r~ \$0-playing-normalized;
#X obj 942 1057 *~ 0.3;
#X obj 1150 1046 *~ 0.3;
#X connect 0 0 2 0;
#X connect 0 0 84 0;
#X connect 1 0 3 0;
#X connect 2 0 12 0;
#X connect 3 0 13 0;
#X connect 9 0 11 0;
#X connect 10 0 13 1;
#X connect 10 0 12 1;
#X connect 10 0 88 0;
#X connect 11 0 10 0;
#X connect 12 0 103 0;
#X connect 13 0 104 0;
#X connect 15 0 21 0;
#X connect 15 0 33 0;
#X connect 16 0 15 0;
#X connect 17 0 16 0;
#X connect 18 0 2 0;
#X connect 18 0 3 0;
#X connect 21 0 19 0;
#X connect 21 0 20 0;
#X connect 22 0 57 0;
#X connect 23 0 24 0;
#X connect 24 0 42 0;
#X connect 24 1 41 0;
#X connect 24 2 40 0;
#X connect 25 0 38 0;
#X connect 27 0 18 1;
#X connect 31 0 0 0;
#X connect 32 0 1 0;
#X connect 34 0 18 0;
#X connect 37 0 47 0;
#X connect 38 0 39 0;
#X connect 38 1 28 0;
#X connect 38 2 29 0;
#X connect 38 3 30 0;
#X connect 43 0 37 0;
#X connect 44 0 55 0;
#X connect 45 0 46 0;
#X connect 46 0 55 1;
#X connect 47 0 58 0;
#X connect 47 0 62 0;
#X connect 48 0 49 0;
#X connect 49 0 47 1;
#X connect 50 0 37 1;
#X connect 51 0 52 0;
#X connect 52 0 50 1;
#X connect 55 0 50 0;
#X connect 57 0 15 0;
#X connect 59 0 61 0;
#X connect 61 0 22 0;
#X connect 61 1 17 0;
#X connect 63 0 17 1;
#X connect 64 0 22 1;
#X connect 65 0 66 0;
#X connect 66 0 68 0;
#X connect 67 0 66 1;
#X connect 67 0 91 0;
#X connect 68 0 72 0;
#X connect 68 0 78 0;
#X connect 69 0 71 0;
#X connect 70 0 71 1;
#X connect 71 0 68 1;
#X connect 72 0 73 0;
#X connect 72 0 74 0;
#X connect 75 0 24 0;
#X connect 77 0 76 0;
#X connect 77 0 35 0;
#X connect 78 0 77 0;
#X connect 79 0 78 1;
#X connect 79 0 80 0;
#X connect 85 0 79 0;
#X connect 88 0 87 0;
#X connect 90 0 38 0;
#X connect 91 0 85 0;
#X connect 94 0 95 0;
#X connect 95 0 97 0;
#X connect 96 0 95 1;
#X connect 97 0 101 0;
#X connect 98 0 100 0;
#X connect 99 0 100 1;
#X connect 100 0 97 1;
#X connect 102 0 9 0;
#X connect 103 0 6 0;
#X connect 104 0 7 0;
