#N canvas 0 0 1892 963 10;
#X obj 165 258 soundfiler;
#X floatatom 165 284 20 0 0 0 - - -, f 20;
#X floatatom 49 304 5 0 0 0 - - -, f 5;
#X obj 46 283 expr 44100 / $f1;
#X obj 37 36 tgl 33 0 empty empty empty 17 7 0 10 -262144 -1 -1 1 1
;
#X msg 40 90 \; pd dsp \$1;
#X obj 42 210 openpanel;
#X obj 41 153 bng 52 250 50 0 empty empty empty 17 7 0 10 -262144 -1
-1;
#X text 98 157 Load Sample;
#X obj 166 325 s sampleSize;
#X text 177 208 Sample Maximallänge von 4:30;
#X msg 43 234 read -maxsize 1.2e+007 -resize \$1 kanalL kanalR;
#X obj 316 285 expr $f1 / 44100 * 1000;
#X floatatom 315 309 10 0 0 0 - - -, f 10;
#X obj 51 326 s sampleRate;
#X text 78 36 Enable AUdio, f 17;
#N canvas 0 50 450 250 (subpatch) 0;
#X array kanalL 437579 float 0 black black;
#X coords 0 1 437578 -1 200 140 1;
#X restore 1380 20 graph;
#N canvas 0 50 450 250 (subpatch) 0;
#X array kanalR 437579 float 0 black black;
#X coords 0 1 437578 -1 200 140 1;
#X restore 1381 202 graph;
#X obj 869 566 phasor~;
#X obj 901 606 *~;
#X floatatom 948 562 14 0 0 0 - - -, f 14;
#X obj 901 669 +~;
#X floatatom 938 639 15 0 0 0 - - -, f 15;
#X text 1048 639 GrainPosition in Samples;
#X obj 964 59 hsl 211 16 1 1000 1 0 empty empty empty -2 -8 0 10 -262144
-1 -1 19700 1;
#X floatatom 963 106 5 0 0 0 - - -, f 5;
#X text 991 82 Slider für GrainSize in Millisekunden;
#X text 1044 562 GrainSize in Samples;
#X text 179 609 Grundfrequenz ist 1 / GrainSize in Sekunden, f 46
;
#X text 864 445 Frequenz / Tonhöhe;
#X obj 972 145 / 1000;
#X obj 958 224 s grainSizeSc;
#X obj 849 222 s grainSizeMsc;
#X obj 1087 224 s grainSizeSmp;
#X obj 318 330 s lengthMsc;
#X text 47 346 whats this?;
#X obj 1089 180 * 44100;
#X obj 947 531 r grainSizeSmp;
#X obj 567 65 hsl 211 16 0 1 0 1 empty empty empty -2 -8 0 10 -262144
-1 -1 2800 1;
#X text 626 85 Slider für relative GrainPosition;
#X obj 574 130 *;
#X obj 626 104 r sampleSize;
#X obj 177 151 bng 52 250 50 0 empty empty empty 17 7 0 10 -262144
-1 -1;
#X text 246 155 Reload Sample;
#X obj 533 212 s grainPosSmp;
#X obj 643 209 s grainPosSc;
#X obj 643 171 / 44100;
#X obj 941 611 r grainPosSmp;
#X obj 140 431 hsl 240 27 -3 3 0 0 empty empty empty -2 -8 0 10 -262144
-1 -1 15933 1;
#X text 205 495 Offset der Grundfrequenz;
#X obj 356 528 r grainSizeSc;
#X obj 238 580 expr 1 / $f1;
#X obj 170 657 s frequency;
#X obj 864 477 r frequency;
#X obj 644 415 tgl 61 0 empty empty empty 17 7 0 10 -262144 -1 -1 1
1;
#X text 643 388 toggle loop;
#X obj 1185 402 bng 60 250 50 0 empty empty empty 17 7 0 10 -262144
-1 -1;
#X text 1253 401 play;
#X obj 837 606 unsig~;
#X floatatom 839 632 5 0 0 0 - - -, f 5;
#X floatatom 308 671 5 0 0 0 - - -, f 5;
#X floatatom 356 557 5 0 0 0 - - -, f 5;
#X obj 159 541 bng 15 250 50 0 empty empty empty 17 7 0 10 -262144
-1 -1;
#X floatatom 862 522 5 0 0 0 - - -, f 5;
#X text 883 1267 comment;
#X obj 935 781 *~;
#X obj 1501 486 vsl 23 257 0 1 0 0 empty empty empty 0 -9 0 10 -262144
-1 -1 3500 1;
#X obj 1008 824 env~;
#X obj 1122 835 - 100;
#X obj 1390 821 vu 15 120 empty empty -1 -8 0 10 -66577 -1 1 0;
#X obj 831 735 unsig~;
#X floatatom 829 767 12 0 0 0 - - -, f 12;
#X obj 964 895 dac~;
#X obj 903 728 tabread4~ kanalL;
#X obj 137 588 *;
#X msg 139 407 1;
#X obj 728 637 edge~;
#X obj 815 492 bng 15 250 50 0 empty empty empty 17 7 0 10 -262144
-1 -1;
#X obj 727 602 expr~ $v1 < 0.5;
#X msg 816 522 0;
#X obj 729 668 spigot;
#X obj 648 486 == 1;
#X msg 909 520 0;
#X obj 142 383 loadbang;
#X obj 491 661 grain, f 33;
#X floatatom 583 767 5 0 0 0 - - -, f 5;
#X connect 0 0 1 0;
#X connect 0 0 3 0;
#X connect 0 0 12 0;
#X connect 1 0 9 0;
#X connect 2 0 14 0;
#X connect 3 0 2 0;
#X connect 4 0 5 0;
#X connect 6 0 11 0;
#X connect 7 0 6 0;
#X connect 11 0 0 0;
#X connect 12 0 13 0;
#X connect 13 0 34 0;
#X connect 18 0 19 0;
#X connect 18 0 58 0;
#X connect 18 0 78 0;
#X connect 19 0 21 0;
#X connect 20 0 19 1;
#X connect 22 0 21 1;
#X connect 22 0 84 1;
#X connect 24 0 25 0;
#X connect 25 0 30 0;
#X connect 25 0 32 0;
#X connect 30 0 31 0;
#X connect 30 0 36 0;
#X connect 36 0 33 0;
#X connect 37 0 20 0;
#X connect 37 0 84 2;
#X connect 38 0 40 0;
#X connect 40 0 44 0;
#X connect 40 0 46 0;
#X connect 41 0 40 1;
#X connect 42 0 0 0;
#X connect 46 0 45 0;
#X connect 47 0 22 0;
#X connect 48 0 62 0;
#X connect 48 0 74 0;
#X connect 50 0 61 0;
#X connect 50 0 62 0;
#X connect 51 0 60 0;
#X connect 51 0 74 1;
#X connect 53 0 63 0;
#X connect 53 0 84 0;
#X connect 54 0 81 0;
#X connect 54 0 56 0;
#X connect 54 0 84 4;
#X connect 56 0 63 0;
#X connect 56 0 82 0;
#X connect 56 0 84 3;
#X connect 58 0 59 0;
#X connect 61 0 51 0;
#X connect 62 0 61 0;
#X connect 62 0 74 0;
#X connect 63 0 18 0;
#X connect 65 0 67 0;
#X connect 65 0 72 0;
#X connect 65 0 72 1;
#X connect 66 0 65 1;
#X connect 67 0 68 0;
#X connect 68 0 69 0;
#X connect 70 0 71 0;
#X connect 73 0 65 0;
#X connect 74 0 52 0;
#X connect 75 0 48 0;
#X connect 76 0 80 0;
#X connect 77 0 79 0;
#X connect 77 0 82 0;
#X connect 78 0 76 0;
#X connect 79 0 18 0;
#X connect 80 0 77 0;
#X connect 81 0 80 1;
#X connect 82 0 18 1;
#X connect 83 0 75 0;
#X connect 84 0 73 0;
#X connect 84 0 70 0;
#X connect 84 1 85 0;
