#N canvas 2391 -805 2390 1251 10;
#X declare -path util;
#X obj 33 10 bng 67 250 50 0 empty empty empty 17 7 0 10 -262144 -1
-1;
#X obj 190 203 soundfiler, f 11;
#X obj 793 50 table sample-L;
#X obj 793 76 table sample-R;
#X obj 286 117 samplerate~;
#X obj 188 92 trigger bang bang;
#X obj 286 141 s samplerate;
#X obj 750 386 s samplesize;
#X obj 377 277 trigger bang float;
#X obj 377 319 samplerate~;
#X obj 377 359 /, f 19;
#X obj 564 356 /, f 18;
#X obj 669 319 samplerate~;
#X floatatom 689 386 8 0 0 0 - - -, f 8;
#X obj 564 292 trigger float bang;
#X text 558 407 laenge in sekunden;
#X text 366 406 laenge in hz;
#X text 749 403 laenge in samples;
#X obj 190 240 trigger bang float float float, f 94;
#X text 143 410 initialisiert;
#X floatatom 463 386 5 0 0 0 - - -, f 5;
#X floatatom 836 386 9 0 0 0 - - -, f 9;
#X obj 1452 35 bng 37 250 50 0 empty empty empty 17 7 0 10 -262144
-1 -1;
#X msg 1452 115 copy sample-L;
#X obj 1452 140 arraycopy sample-R;
#X text 1496 37 force mono;
#X obj 634 1340 dac~, f 17;
#X obj 732 1268 *~;
#X obj 1035 456 vsl 20 111 0 1 0 0 empty empty empty 0 -9 0 10 -262144
-1 -1 0 1;
#X floatatom 1072 559 5 0 0 0 - - -, f 5;
#X obj 634 1268 *~, f 2;
#X obj 377 386 s length-hz;
#X obj 564 386 s length-sec;
#X obj 634 1310 hip~ 5;
#X obj 732 1310 hip~ 5;
#X obj 608 769 phasor~;
#X obj 608 662 r length-hz;
#X obj 113 518 hsl 178 20 -2 2 0 0 empty empty empty -2 -8 0 10 -262144
-1 -1 0 1;
#X floatatom 232 546 5 0 0 0 - - -, f 5;
#X obj 608 736 *~;
#X obj 77 549 s playback-speed;
#X obj 624 696 r playback-speed;
#X obj 1269 300 bng 28 250 50 0 empty empty empty 17 7 0 10 -262144
-1 -1;
#X obj 1143 265 hradio 15 1 0 8 empty empty empty 0 -8 0 10 -262144
-1 -1 0;
#X floatatom 1143 288 5 0 0 0 - - -, f 5;
#X symbolatom 1143 334 10 0 0 0 - - -, f 10;
#X msg 1143 358 \$1;
#X obj 1143 383 print;
#X msg 1143 309 set 0\$1.wav;
#X text 1186 362 file chooser;
#X obj 1087 103 bng 15 250 50 0 empty empty empty 0 -6 0 8 -262144
-1 -1;
#X obj 1140 74 folder_list;
#X obj 1032 247 print;
#X msg 1140 43 symbol ./samples/*;
#X obj 1140 127 unpack s s;
#X obj 1140 101 s2l samples/;
#X text 1232 112 files im samples ordner öffnen und aufzeigen, f
23;
#X obj 1010 721 pack float float float;
#X obj 253 818 pack float float symbol symbol;
#X obj 307 690 r samplesize;
#X obj 267 665 r length-sec;
#X msg 427 788 symbol sample-R;
#X msg 369 740 symbol sample-L;
#X text 781 18 create empty tables;
#X obj 253 762 f;
#X obj 190 386 s init;
#X obj 253 637 r init;
#X msg 787 1161 all \$1 \$2 \$3 \$4;
#X msg 634 1161 next \$1 \$2 \$3;
#X text 1029 434 master volume;
#X obj 336 523 hsl 128 15 0 10 0 0 empty empty empty -2 -8 0 10 -262144
-1 -1 0 1;
#X floatatom 456 542 5 0 0 0 - - -, f 5;
#X obj 681 891 phasor~;
#X obj 816 907 unsig~ 0.1;
#X floatatom 816 947 5 0 0 0 - - -, f 5;
#X obj 816 928 hsl 128 15 0 1 0 0 empty empty empty -2 -8 0 10 -262144
-1 -1 0 1;
#X obj 765 1340 env~;
#X obj 765 1402 vu 15 120 empty empty -1 -8 0 10 -66577 -1 1 0;
#X obj 590 1402 vu 15 120 empty empty -1 -8 0 10 -66577 -1 1 0;
#X obj 590 1340 env~;
#X obj 766 1035 hsl 150 16 0 1 0 0 empty empty empty -2 -8 0 10 -262144
-1 -1 0 1;
#X floatatom 766 1061 5 0 0 0 - - -, f 5;
#X obj 766 1012 unsig~ 0.1;
#X text 600 1015 to-do: multiply with lfo output (limit output of modulation
to 0 - 1), f 25;
#X obj 582 44 declare -path util;
#X obj 681 921 edgy~;
#X text 580 19 load util patches;
#X text 404 494 density;
#X text 183 496 playback speed;
#X obj 434 854 print;
#X obj 86 254 bng 52 250 50 0 empty empty empty 17 7 0 10 -262144 -1
-1;
#X obj 608 801 s~ playback;
#X obj 595 924 r~ playback;
#X obj 595 957 snapshot~;
#X obj 595 990 s scan-pos;
#X obj 1010 688 r scan-pos;
#X text 62 718 warum auch immer wird der pitch ab 0.75 wider höher...
warum????, f 23;
#X obj 314 553 s density;
#X obj 681 865 r density;
#X obj 253 856 s init-params;
#X obj 1010 754 s dynamic-params;
#X obj 787 1135 r init-params;
#X obj 634 1135 r dynamic-params;
#X obj 282 1022 r dynamic-params;
#X obj 399 1022 r init-params;
#X text 297 996 fürs debuggen... delete later;
#X obj 1001 584 s master-volume;
#X obj 646 1220 r master-volume;
#X obj 595 512 hsl 128 15 5 2000 1 0 empty empty empty -2 -8 0 10 -262144
-1 -1 0 1;
#X obj 567 544 s grain-length;
#X floatatom 669 544 9 0 0 0 - - -, f 9;
#X obj 1076 616 r grain-length;
#X obj 827 511 hsl 128 15 -2 2 0 0 empty empty empty -2 -8 0 10 -262144
-1 -1 0 1;
#X obj 805 543 s pitch;
#X obj 1139 653 r pitch;
#X floatatom 878 537 5 0 0 0 - - -, f 5;
#X text 480 592 sieht aus als ob was mit der grain berechnung falsch
ist...;
#X text 397 1189 ab 100 kommt pd an seine grenzen..;
#X obj 80 450 loadbang;
#X msg 82 476 1;
#X obj 319 453 loadbang;
#X floatatom 1073 878 5 0 0 0 - - -, f 5;
#X obj 1073 859 hsl 128 15 0 1 0 0 empty empty empty -2 -8 0 10 -262144
-1 -1 0 1;
#X obj 1073 838 unsig~ 0.01;
#X obj 1073 785 phasor~ 1, f 17;
#X obj 567 449 loadbang;
#X msg 567 484 500;
#X obj 798 442 loadbang;
#X msg 798 477 1;
#X obj 369 717 r init;
#X obj 427 764 r init;
#X msg 319 488 5;
#X obj 634 1192 clone grain 10, f 33;
#X obj 282 1055 grain, f 20;
#X msg 314 79 \; pd dsp 1;
#X obj 1199 166 s file-name;
#X obj 1058 206 r file-name;
#X msg 190 165 read -resize ./samples/\$1 sample-L sample-R;
#X obj 66 125 symbol 01.wav;
#X obj 192 7 loadbang;
#X obj 1531 420 udpreceive 5005;
#X obj 1532 449 unpackOSC;
#X obj 1804 516 routeOSC /master-volume, f 25;
#X obj 1802 540 s control-master-volume, f 25;
#X obj 1000 407 r control-master-volume, f 25;
#X obj 1396 579 routeOSC /grain-pitch, f 27;
#X obj 1397 602 s control-grain-pitch, f 25;
#X obj 1226 575 routeOSC /grain-length, f 26;
#X obj 1224 599 s control-grain-length, f 25;
#X obj 596 485 r control-grain-length, f 25;
#X obj 829 470 r control-grain-pitch, f 22;
#X obj 1581 575 routeOSC /grain-density, f 27;
#X obj 1582 598 s control-grain-density, f 25;
#X obj 376 453 r control-grain-density, f 25;
#X obj 1763 579 routeOSC /grain-speed, f 27;
#X obj 1764 602 s control-grain-speed, f 25;
#X obj 143 459 r control-grain-speed, f 25;
#X obj 187 61 t b b;
#X obj 187 35 delay 3000;
#X obj 1133 488 routeOSC /master-sample, f 26;
#X obj 1131 512 s control-master-sample, f 25;
#X obj 405 68 r control-master-sample, f 25;
#X connect 0 0 5 0;
#X connect 1 0 18 0;
#X connect 4 0 6 0;
#X connect 5 0 138 0;
#X connect 5 1 4 0;
#X connect 8 0 9 0;
#X connect 8 1 10 1;
#X connect 9 0 10 0;
#X connect 10 0 31 0;
#X connect 11 0 32 0;
#X connect 12 0 11 1;
#X connect 14 0 11 0;
#X connect 14 1 12 0;
#X connect 18 0 65 0;
#X connect 18 1 8 0;
#X connect 18 2 14 0;
#X connect 18 3 7 0;
#X connect 22 0 23 0;
#X connect 23 0 24 0;
#X connect 27 0 34 0;
#X connect 28 0 29 0;
#X connect 30 0 33 0;
#X connect 33 0 26 0;
#X connect 34 0 26 1;
#X connect 35 0 91 0;
#X connect 36 0 39 0;
#X connect 37 0 38 0;
#X connect 39 0 35 0;
#X connect 41 0 39 1;
#X connect 42 0 45 0;
#X connect 43 0 44 0;
#X connect 44 0 48 0;
#X connect 45 0 46 0;
#X connect 46 0 47 0;
#X connect 48 0 45 0;
#X connect 51 0 50 0;
#X connect 51 0 55 0;
#X connect 53 0 51 0;
#X connect 54 1 135 0;
#X connect 55 0 54 0;
#X connect 57 0 100 0;
#X connect 58 0 89 0;
#X connect 58 0 99 0;
#X connect 59 0 58 1;
#X connect 60 0 64 1;
#X connect 61 0 58 3;
#X connect 62 0 58 2;
#X connect 64 0 58 0;
#X connect 66 0 64 0;
#X connect 67 0 132 1;
#X connect 68 0 132 0;
#X connect 70 0 71 0;
#X connect 72 0 85 0;
#X connect 73 0 75 0;
#X connect 75 0 74 0;
#X connect 76 0 77 0;
#X connect 79 0 78 0;
#X connect 80 0 81 0;
#X connect 82 0 80 0;
#X connect 85 0 93 0;
#X connect 90 0 65 0;
#X connect 92 0 93 0;
#X connect 93 0 94 0;
#X connect 95 0 57 0;
#X connect 98 0 72 0;
#X connect 101 0 67 0;
#X connect 102 0 68 0;
#X connect 103 0 133 0;
#X connect 104 0 133 1;
#X connect 107 0 30 1;
#X connect 107 0 27 1;
#X connect 108 0 110 0;
#X connect 111 0 57 1;
#X connect 112 0 115 0;
#X connect 114 0 57 2;
#X connect 118 0 119 0;
#X connect 119 0 40 0;
#X connect 120 0 131 0;
#X connect 122 0 121 0;
#X connect 123 0 122 0;
#X connect 125 0 126 0;
#X connect 126 0 109 0;
#X connect 127 0 128 0;
#X connect 128 0 113 0;
#X connect 129 0 62 0;
#X connect 130 0 61 0;
#X connect 131 0 97 0;
#X connect 132 0 30 0;
#X connect 132 1 27 0;
#X connect 137 0 1 0;
#X connect 138 0 137 0;
#X connect 139 0 158 0;
#X connect 140 0 141 0;
#X connect 141 0 142 0;
#X connect 141 0 145 0;
#X connect 141 0 147 0;
#X connect 141 0 151 0;
#X connect 141 0 154 0;
#X connect 141 0 159 0;
#X connect 142 0 143 0;
#X connect 144 0 106 0;
#X connect 145 0 146 0;
#X connect 147 0 148 0;
#X connect 149 0 109 0;
#X connect 150 0 113 0;
#X connect 151 0 152 0;
#X connect 153 0 97 0;
#X connect 154 0 155 0;
#X connect 156 0 40 0;
#X connect 157 0 5 0;
#X connect 157 1 134 0;
#X connect 158 0 157 0;
#X connect 159 0 160 0;
#X connect 161 0 137 0;
