#N canvas 0 0 1892 963 10;
#X obj 165 258 soundfiler;
#X floatatom 165 284 20 0 0 0 - - -, f 20;
#X floatatom 49 304 5 0 0 0 - - -, f 5;
#X obj 46 283 expr 44100 / $f1;
#X obj 37 36 tgl 33 0 empty empty empty 17 7 0 10 -262144 -1 -1 1 1
;
#X msg 40 90 \; pd dsp \$1;
#X obj 42 210 openpanel;
#X obj 41 153 bng 52 250 50 0 empty empty empty 17 7 0 10 -262144 -1
-1;
#X text 98 157 Load Sample;
#X obj 166 325 s sampleSize;
#X text 177 208 Sample Maximallänge von 4:30;
#X obj 316 285 expr $f1 / 44100 * 1000;
#X floatatom 315 309 10 0 0 0 - - -, f 10;
#X obj 49 326 s sampleRate;
#X text 78 36 Enable AUdio, f 17;
#N canvas 0 50 450 250 (subpatch) 0;
#X array channelL 437579 float 0 black black;
#X coords 0 1 437578 -1 200 140 1;
#X restore 1380 20 graph;
#N canvas 0 50 450 250 (subpatch) 0;
#X array channelR 437579 float 0 black black;
#X coords 0 1 437578 -1 200 140 1;
#X restore 1381 202 graph;
#X floatatom 817 1277 14 0 0 0 - - -, f 14;
#X floatatom 993 1271 15 0 0 0 - - -, f 15;
#X text 971 1224 GrainPosition in Samples;
#X obj 1432 643 hsl 211 16 1 10000 1 0 empty empty empty -2 -8 0 10
-262144 -1 -1 7220 1;
#X floatatom 1434 690 12 0 0 0 - - -, f 12;
#X text 1412 617 Slider für GrainSize in Millisekunden;
#X text 803 1226 GrainSize in Samples;
#X text 563 808 Grundfrequenz ist 1 / GrainSize in Sekunden, f 46
;
#X text 1145 1224 Frequenz / Tonhöhe;
#X obj 1433 729 / 1000;
#X obj 1433 806 s grainSizeSc;
#X obj 1317 806 s grainSizeMsc;
#X obj 1560 806 s grainSizeSmp;
#X obj 314 339 s lengthMsc;
#X text 45 346 whats this?;
#X obj 1557 764 * 44100;
#X obj 802 1260 r grainSizeSmp, f 16;
#X obj 969 636 hsl 211 16 0 1 0 1 empty empty empty -2 -8 0 10 -262144
-1 -1 14751 1;
#X text 985 605 Slider für relative GrainPosition;
#X obj 970 724 *;
#X obj 1022 698 r sampleSize;
#X obj 177 151 bng 52 250 50 0 empty empty empty 17 7 0 10 -262144
-1 -1;
#X text 246 155 Reload Sample;
#X obj 929 806 s grainPosSmp;
#X obj 1039 803 s grainPosSc;
#X obj 1039 765 / 44100;
#X obj 978 1254 r grainPosSmp, f 17;
#X obj 421 665 hsl 240 27 -3 3 0 0 empty empty empty -2 -8 0 10 -262144
-1 -1 23900 1;
#X obj 734 718 r grainSizeSc;
#X obj 618 765 expr 1 / $f1;
#X obj 622 1263 bng 60 250 50 0 empty empty empty 17 7 0 10 -262144
-1 -1;
#X text 619 1223 play;
#X floatatom 625 780 12 0 0 0 - - -, f 12;
#X floatatom 734 749 5 0 0 0 - - -, f 5;
#X obj 539 735 bng 15 250 50 0 empty empty empty 17 7 0 10 -262144
-1 -1;
#X text 859 2155 comment;
#X obj 722 1901 *~;
#X obj 1781 587 vsl 23 257 0 1 0 0 empty empty empty 0 -9 0 10 -262144
-1 -1 2920 1;
#X obj 948 1947 env~;
#X obj 948 1971 - 100;
#X obj 1351 2009 vu 15 120 empty empty -1 -8 0 10 -66577 -1 1 0;
#X obj 722 1960 dac~;
#X obj 517 773 *;
#X msg 423 641 1;
#X obj 426 617 loadbang;
#X floatatom 607 692 10 0 0 0 - - -, f 10;
#X text 511 629 Relativ zur Grundfrequenz;
#X msg 1648 626 50;
#X obj 1647 600 loadbang;
#X obj 1131 1502 f;
#X obj 965 1504 f;
#X obj 795 1502 f, f 1;
#X msg 623 1503 1;
#X msg 794 1527 this \$1;
#X msg 964 1528 this \$1;
#X obj 1147 1254 r speed, f 12;
#X obj 550 842 s speed;
#X floatatom 466 790 12 0 0 0 - - -, f 12;
#X obj 623 1442 t b b b b, f 86;
#X floatatom 1164 1272 10 0 0 0 - - -, f 10;
#X obj 1042 1645 vline~;
#X obj 1041 1592 f;
#X msg 1113 1614 0 0 0;
#X msg 1040 1615 1 \$1 0, f 10;
#X floatatom 1190 1574 9 0 0 0 - - -, f 9;
#X obj 692 1264 tgl 60 0 empty empty empty 17 7 0 10 -262144 -1 -1
1 1;
#X msg 624 1528 this \$1;
#X obj 1042 1473 t b b, f 15;
#X text 692 1223 toggle loop;
#X floatatom 1157 1518 5 0 0 0 - - -, f 5;
#X obj 1085 1718 edge~, f 7;
#X obj 1044 1671 expr~ $v1 == 1;
#X obj 1046 1694 spigot~;
#X obj 962 497 phasor~;
#X floatatom 1018 551 10 0 0 0 - - -, f 10;
#X obj 958 373 r sampleRate;
#X obj 1067 1556 expr 1 / abs($f1) * 1000 / 2;
#X text 1038 517 is this really bad for perfomance?, f 20;
#X obj 966 533 unsig~ 0.1;
#X obj 958 399 expr abs($f1);
#X obj 2702 538 vline~, f 7;
#X msg 2476 503 0 0 0;
#X msg 2564 500 \$1 0 0;
#X text 2611 499 start position;
#X text 1164 1609 triggers another grain after the initial grain is
halfway through, f 45;
#X obj 1781 860 s amplitude;
#X obj 1779 539 loadbang;
#X obj 737 1865 r amplitude;
#X obj 2702 563 unsig~;
#X floatatom 2740 581 5 0 0 0 - - -, f 5;
#X obj 2714 279 hsl 211 16 0 1 0 1 empty empty empty -2 -8 0 10 -262144
-1 -1 5530 1;
#X obj 2546 433 f;
#X obj 2716 298 hsl 211 16 0 1 0 1 empty empty empty -2 -8 0 10 -262144
-1 -1 14930 1;
#X obj 2701 416 f;
#X obj 2571 148 bng 59 250 50 0 empty empty empty 17 7 0 10 -262144
-1 -1;
#X obj 2575 233 t b b;
#X obj 2751 341 r sampleRate;
#X obj 2751 366 expr 1000 / $f1;
#X floatatom 2844 383 16 0 0 0 - - -, f 16;
#X obj 1174 394 hsl 211 16 -10 10 0 1 empty empty empty -2 -8 0 10
-262144 -1 -1 18850 1;
#X floatatom 1174 418 5 0 0 0 - - -, f 5;
#X msg 2702 499 §1 \$2 0;
#X obj 2705 166 pack f f;
#X msg 2706 77 3;
#X obj 2706 115 f;
#X obj 2764 108 f;
#X obj 2602 33 bng 31 250 50 0 empty empty empty 17 7 0 10 -262144
-1 -1;
#X text 1159 1653 A 'density' value could control this value (e.g.
'brige' grains start earlier);
#X msg 1173 364 1;
#X obj 2632 86 t b b b;
#X msg 2769 72 43, f 4;
#X obj 2708 203 print $f2 $f2;
#X text 2757 497 ramp to end position;
#X obj 2701 454 pack f f;
#X text 2834 451 speed;
#X obj 2750 419 *;
#X msg 897 443 0;
#X obj 959 443 *;
#X floatatom 992 469 5 0 0 0 - - -, f 5;
#X obj 786 374 bng 46 250 50 0 empty empty empty 17 7 0 10 -262144
-1 -1;
#X text 2524 610 use vline~ to play through the grains instead of phasor~?
;
#X obj 900 372 bng 46 250 50 0 empty empty empty 17 7 0 10 -262144
-1 -1;
#X text 800 354 start;
#X text 919 352 stop;
#X obj 730 497 s startStop;
#X obj 692 1240 r startStop;
#X obj 859 93 mtof;
#X obj 774 -124 notein;
#X floatatom 824 -67 5 0 0 0 - - -, f 5;
#X obj 768 93 bng 33 250 50 0 empty empty empty 17 7 0 10 -262144 -1
-1;
#X obj 936 89 bng 36 250 50 0 empty empty empty 17 7 0 10 -262144 -1
-1;
#X text 778 75 noteon;
#X text 945 70 noteoff;
#X obj 930 -30 select 0;
#X floatatom 774 -68 5 0 0 0 - - -, f 5;
#X obj 775 -21 stripnote;
#X floatatom 833 -4 5 0 0 0 - - -, f 5;
#X floatatom 1027 -1 5 0 0 0 - - -, f 5;
#X text 862 73 pitch;
#X obj 1172 340 loadbang;
#X floatatom 859 133 10 0 0 0 - - -, f 10;
#X text 998 127 midi stuff, f 12;
#X text 1245 345 Geschwindigkeit unabhängig von Pitch;
#X msg 1779 562 0.2;
#X obj 621 1243 loadbang;
#X obj 813 550 s stop;
#X obj 744 549 s start;
#X obj 476 -67 notein, f 22;
#X floatatom 540 -33 8 0 0 0 - - -, f 8;
#X floatatom 605 -33 7 0 0 0 - - -, f 7;
#X text 608 -50 channel;
#X text 543 -50 velocity;
#X text 476 -50 pitch;
#X obj 510 -50 mtof;
#X floatatom 476 -33 10 0 0 0 - - -, f 10;
#X obj 476 12 pack f f, f 11;
#X obj 476 70 - 1;
#X obj 476 97 pack f f f, f 13;
#X obj 476 41 poly 8, f 13;
#N canvas 0 0 450 300 (subpatch) 0;
#X array hanning 255 float 1 black black;
#A 0 0 0.0133333 0.0266667 0.0366667 0.0533333 0.06 0.09 0.133333 0.15
0.173333 0.216667 0.256667 0.293333 0.313333 0.346667 0.393333 0.42
0.433333 0.45 0.463333 0.51 0.526667 0.543333 0.56 0.59 0.61 0.62 0.633333
0.646666 0.656666 0.676666 0.683333 0.693333 0.71 0.72 0.726666 0.74
0.746666 0.756666 0.76 0.766666 0.77 0.776666 0.783333 0.786666 0.793333
0.8 0.803333 0.81 0.816666 0.823333 0.83 0.836666 0.84 0.846666 0.853333
0.86 0.86 0.866666 0.873333 0.873333 0.876666 0.88 0.883333 0.886666
0.89 0.893333 0.893333 0.896666 0.9 0.903333 0.903333 0.906666 0.91
0.91 0.913333 0.915 0.92 0.92 0.921666 0.923333 0.926666 0.93 0.933333
0.933333 0.936666 0.936666 0.94 0.943333 0.943333 0.945 0.946666 0.95
0.951666 0.956666 0.956666 0.956666 0.96 0.96 0.963333 0.966666 0.966666
0.966666 0.966666 0.969999 0.969999 0.969999 0.973333 0.973333 0.973333
0.976666 0.976666 0.976666 0.976666 0.976666 0.976666 0.979999 0.979999
0.979999 0.979999 0.979999 0.979999 0.979999 0.979999 0.979999 0.979999
0.979999 0.979999 0.979999 0.979999 0.979999 0.979999 0.979999 0.979999
0.979999 0.979999 0.979999 0.979999 0.979999 0.979999 0.979999 0.979999
0.979999 0.979999 0.979999 0.979999 0.979999 0.979999 0.979999 0.979999
0.979999 0.979999 0.979999 0.976666 0.976666 0.976666 0.976666 0.973333
0.973333 0.973333 0.969999 0.969999 0.969999 0.969999 0.966666 0.963333
0.963333 0.96 0.956666 0.95 0.946666 0.945 0.94 0.936666 0.933333 0.931666
0.926666 0.923333 0.92 0.916666 0.913333 0.906666 0.903333 0.896666
0.896666 0.89 0.883333 0.873333 0.87 0.863333 0.853333 0.846666 0.833333
0.83 0.823333 0.813333 0.803333 0.806666 0.8 0.793333 0.783333 0.775
0.773333 0.76 0.756666 0.746666 0.736666 0.73 0.713333 0.706666 0.695
0.69 0.67 0.656666 0.63 0.616666 0.596667 0.586667 0.57 0.543333 0.523333
0.5 0.456667 0.44 0.433333 0.41 0.396667 0.373333 0.35 0.336667 0.313333
0.293333 0.256667 0.246667 0.223333 0.206667 0.15 0.126667 0.11 0.0966669
0.0800002 0.0666669 0.0600002 0.0500002 0.0466669 0.0366669 0.0333336
0.0300002 0.0233336 0.0200002 0.0133336 0.0100002 0 0 0;
#X coords 0 1 254 0 200 140 1;
#X restore 1715 162 graph;
#X msg 43 234 read -maxsize 1.2e+007 -resize \$1 channelL channelR
;
#X msg 711 1769 next \$1 \$2 \$3 \$4;
#X obj 716 1722 pack f f f f;
#X floatatom 918 1720 5 0 0 0 - - -, f 5;
#X floatatom 781 1657 11 0 0 0 - - -, f 11;
#X floatatom 736 1667 5 0 0 0 - - -, f 5;
#X floatatom 664 1654 5 0 0 0 - - -, f 5;
#X obj 720 1826 clone grain 100;
#X connect 0 0 1 0;
#X connect 0 0 3 0;
#X connect 0 0 11 0;
#X connect 1 0 9 0;
#X connect 2 0 13 0;
#X connect 3 0 2 0;
#X connect 4 0 5 0;
#X connect 6 0 177 0;
#X connect 7 0 6 0;
#X connect 11 0 12 0;
#X connect 12 0 30 0;
#X connect 20 0 21 0;
#X connect 21 0 26 0;
#X connect 21 0 28 0;
#X connect 26 0 27 0;
#X connect 26 0 32 0;
#X connect 32 0 29 0;
#X connect 33 0 17 0;
#X connect 33 0 68 1;
#X connect 34 0 36 0;
#X connect 36 0 42 0;
#X connect 36 0 40 0;
#X connect 37 0 36 1;
#X connect 38 0 0 0;
#X connect 42 0 41 0;
#X connect 43 0 18 0;
#X connect 43 0 67 1;
#X connect 44 0 51 0;
#X connect 44 0 59 0;
#X connect 44 0 62 0;
#X connect 45 0 50 0;
#X connect 45 0 51 0;
#X connect 46 0 49 0;
#X connect 46 0 59 1;
#X connect 47 0 75 0;
#X connect 50 0 46 0;
#X connect 51 0 50 0;
#X connect 51 0 59 0;
#X connect 53 0 58 0;
#X connect 53 0 58 1;
#X connect 53 0 55 0;
#X connect 54 0 102 0;
#X connect 55 0 56 0;
#X connect 56 0 57 0;
#X connect 59 0 73 0;
#X connect 59 0 74 0;
#X connect 60 0 44 0;
#X connect 61 0 60 0;
#X connect 64 0 20 0;
#X connect 65 0 64 0;
#X connect 66 0 86 0;
#X connect 66 0 93 0;
#X connect 66 0 180 0;
#X connect 67 0 71 0;
#X connect 67 0 181 0;
#X connect 68 0 70 0;
#X connect 68 0 182 0;
#X connect 69 0 83 0;
#X connect 69 0 183 0;
#X connect 72 0 66 1;
#X connect 72 0 76 0;
#X connect 75 0 69 0;
#X connect 75 1 68 0;
#X connect 75 2 67 0;
#X connect 75 3 84 0;
#X connect 77 0 88 0;
#X connect 78 0 80 0;
#X connect 79 0 77 0;
#X connect 80 0 77 0;
#X connect 82 0 89 1;
#X connect 84 0 78 0;
#X connect 84 1 66 0;
#X connect 87 0 79 0;
#X connect 87 0 75 0;
#X connect 88 0 89 0;
#X connect 89 1 87 0;
#X connect 90 0 95 0;
#X connect 92 0 96 0;
#X connect 93 0 78 1;
#X connect 93 0 81 0;
#X connect 95 0 91 0;
#X connect 95 0 34 0;
#X connect 96 0 134 1;
#X connect 97 0 105 0;
#X connect 98 0 97 0;
#X connect 99 0 97 0;
#X connect 103 0 160 0;
#X connect 104 0 53 1;
#X connect 105 0 106 0;
#X connect 107 0 108 1;
#X connect 108 0 99 0;
#X connect 109 0 110 1;
#X connect 110 0 130 0;
#X connect 111 0 112 0;
#X connect 112 0 110 0;
#X connect 112 1 108 0;
#X connect 113 0 114 0;
#X connect 114 0 115 0;
#X connect 114 0 132 0;
#X connect 116 0 117 0;
#X connect 116 0 134 0;
#X connect 118 0 97 0;
#X connect 119 0 128 0;
#X connect 120 0 121 0;
#X connect 121 0 119 0;
#X connect 122 0 119 1;
#X connect 123 0 126 0;
#X connect 125 0 116 0;
#X connect 127 0 122 0;
#X connect 132 0 130 1;
#X connect 133 0 90 0;
#X connect 133 0 90 1;
#X connect 133 0 141 0;
#X connect 134 0 90 0;
#X connect 134 0 135 0;
#X connect 136 0 134 0;
#X connect 136 0 141 0;
#X connect 136 0 163 0;
#X connect 138 0 133 0;
#X connect 138 0 162 0;
#X connect 142 0 82 0;
#X connect 143 0 157 0;
#X connect 144 0 151 0;
#X connect 144 1 145 0;
#X connect 145 0 152 1;
#X connect 145 0 150 0;
#X connect 146 0 136 0;
#X connect 147 0 138 0;
#X connect 150 0 147 0;
#X connect 150 1 154 0;
#X connect 151 0 152 0;
#X connect 152 0 146 0;
#X connect 152 0 143 0;
#X connect 152 1 153 0;
#X connect 156 0 125 0;
#X connect 160 0 54 0;
#X connect 161 0 47 0;
#X connect 164 0 170 0;
#X connect 164 1 165 0;
#X connect 164 2 166 0;
#X connect 165 0 172 1;
#X connect 170 0 171 0;
#X connect 171 0 172 0;
#X connect 172 0 175 0;
#X connect 173 0 174 0;
#X connect 175 0 173 0;
#X connect 175 1 174 1;
#X connect 175 2 174 2;
#X connect 177 0 0 0;
#X connect 178 0 184 0;
#X connect 179 0 178 0;
#X connect 180 0 179 3;
#X connect 181 0 179 2;
#X connect 182 0 179 1;
#X connect 183 0 179 0;
#X connect 184 0 53 0;
