#N canvas 0 0 1892 963 10;
#X obj 165 258 soundfiler;
#X floatatom 165 284 20 0 0 0 - - -, f 20;
#X floatatom 49 304 5 0 0 0 - - -, f 5;
#X obj 46 283 expr 44100 / $f1;
#X obj 37 36 tgl 33 0 empty empty empty 17 7 0 10 -262144 -1 -1 1 1
;
#X msg 40 90 \; pd dsp \$1;
#X obj 42 210 openpanel;
#X obj 41 153 bng 52 250 50 0 empty empty empty 17 7 0 10 -262144 -1
-1;
#X text 98 157 Load Sample;
#X obj 166 325 s sampleSize;
#X text 177 208 Sample Maximallänge von 4:30;
#X msg 43 234 read -maxsize 1.2e+007 -resize \$1 kanalL kanalR;
#X obj 316 285 expr $f1 / 44100 * 1000;
#X floatatom 315 309 10 0 0 0 - - -, f 10;
#X obj 51 326 s sampleRate;
#X text 78 36 Enable AUdio, f 17;
#N canvas 0 50 450 250 (subpatch) 0;
#X array kanalL 437579 float 0 black black;
#X coords 0 1 437578 -1 200 140 1;
#X restore 1380 20 graph;
#N canvas 0 50 450 250 (subpatch) 0;
#X array kanalR 437579 float 0 black black;
#X coords 0 1 437578 -1 200 140 1;
#X restore 1381 202 graph;
#X floatatom 860 742 14 0 0 0 - - -, f 14;
#X floatatom 1038 738 15 0 0 0 - - -, f 15;
#X text 1016 691 GrainPosition in Samples;
#X obj 964 59 hsl 211 16 1 10000 1 0 empty empty empty -2 -8 0 10 -262144
-1 -1 18720 1;
#X floatatom 963 106 12 0 0 0 - - -, f 12;
#X text 991 82 Slider für GrainSize in Millisekunden;
#X text 846 691 GrainSize in Samples;
#X text 179 609 Grundfrequenz ist 1 / GrainSize in Sekunden, f 46
;
#X text 1182 692 Frequenz / Tonhöhe;
#X obj 972 145 / 1000;
#X obj 958 224 s grainSizeSc;
#X obj 849 222 s grainSizeMsc;
#X obj 1087 224 s grainSizeSmp;
#X obj 318 330 s lengthMsc;
#X text 47 346 whats this?;
#X obj 1089 180 * 44100;
#X obj 845 725 r grainSizeSmp, f 16;
#X obj 577 52 hsl 211 16 0 1 0 1 empty empty empty -2 -8 0 10 -262144
-1 -1 750 1;
#X text 626 85 Slider für relative GrainPosition;
#X obj 574 130 *;
#X obj 626 104 r sampleSize;
#X obj 177 151 bng 52 250 50 0 empty empty empty 17 7 0 10 -262144
-1 -1;
#X text 246 155 Reload Sample;
#X obj 533 212 s grainPosSmp;
#X obj 643 209 s grainPosSc;
#X obj 643 171 / 44100;
#X obj 1023 721 r grainPosSmp, f 17;
#X obj 137 431 hsl 240 27 -3 3 0 0 empty empty empty -2 -8 0 10 -262144
-1 -1 15933 1;
#X obj 356 528 r grainSizeSc;
#X obj 238 580 expr 1 / $f1;
#X obj 659 720 bng 60 250 50 0 empty empty empty 17 7 0 10 -262144
-1 -1;
#X text 659 694 play;
#X floatatom 308 671 12 0 0 0 - - -, f 12;
#X floatatom 356 557 5 0 0 0 - - -, f 5;
#X obj 159 541 bng 15 250 50 0 empty empty empty 17 7 0 10 -262144
-1 -1;
#X text 883 1267 comment;
#X obj 665 995 *~;
#X obj 1380 703 vsl 23 257 0 1 0 0 empty empty empty 0 -9 0 10 -262144
-1 -1 8100 1;
#X obj 983 1056 env~;
#X obj 983 1080 - 100;
#X obj 1386 1118 vu 15 120 empty empty -1 -8 0 10 -66577 -1 1 0;
#X obj 664 1091 dac~;
#X obj 137 588 *;
#X msg 139 407 1;
#X obj 142 383 loadbang;
#X obj 665 936 grain, f 85;
#X floatatom 321 465 10 0 0 0 - - -, f 10;
#X text 231 489 Relativ zur Grundfrequenz;
#X msg 964 34 50;
#X obj 963 8 loadbang;
#X obj 1176 857 f;
#X obj 1006 860 f;
#X obj 830 852 f, f 1;
#X msg 660 841 1;
#X msg 863 891 this \$1;
#X msg 1062 897 this \$1;
#X obj 1184 722 r speed, f 12;
#X obj 170 657 s speed;
#X msg 1219 896 this \$1;
#X msg 688 883 next \$1;
#X floatatom 82 658 12 0 0 0 - - -, f 12;
#X obj 661 798 t b b b b, f 86;
#X floatatom 1679 557 5 0 0 0 - - -, f 5;
#X msg 1579 590 0;
#X obj 1666 735 unsig~;
#X floatatom 1663 765 12 0 0 0 - - -, f 12;
#X obj 1759 498 bng 27 250 50 0 empty empty empty 17 7 0 10 -262144
-1 -1;
#X obj 1759 702 phasor~;
#X obj 1757 742 unsig~;
#X floatatom 1755 769 12 0 0 0 - - -, f 12;
#X msg 1799 585 0, f 6;
#X obj 1673 461 bng 30 250 50 0 empty empty empty 17 7 0 10 -262144
-1 -1;
#X obj 1659 608 expr 1 / $f1;
#X obj 1663 647 * 1000;
#X floatatom 1508 652 13 0 0 0 - - -, f 13;
#X obj 1668 704 vline~;
#X obj 1588 826 snapshot~;
#X obj 1716 826 snapshot~;
#X obj 1513 767 metro 500;
#X floatatom 1588 851 16 0 0 0 - - -, f 16;
#X floatatom 1586 883 18 0 0 0 - - -, f 18;
#X obj 1636 469 bng 15 250 50 0 empty empty empty 17 7 0 10 -262144
-1 -1;
#X msg 1666 674 1 \$1 0;
#X msg 1730 571 -1;
#X floatatom 1201 740 10 0 0 0 - - -, f 10;
#X connect 0 0 1 0;
#X connect 0 0 3 0;
#X connect 0 0 12 0;
#X connect 1 0 9 0;
#X connect 2 0 14 0;
#X connect 3 0 2 0;
#X connect 4 0 5 0;
#X connect 6 0 11 0;
#X connect 7 0 6 0;
#X connect 11 0 0 0;
#X connect 12 0 13 0;
#X connect 13 0 31 0;
#X connect 21 0 22 0;
#X connect 22 0 27 0;
#X connect 22 0 29 0;
#X connect 27 0 28 0;
#X connect 27 0 33 0;
#X connect 33 0 30 0;
#X connect 34 0 18 0;
#X connect 34 0 70 1;
#X connect 35 0 37 0;
#X connect 37 0 41 0;
#X connect 37 0 43 0;
#X connect 38 0 37 1;
#X connect 39 0 0 0;
#X connect 43 0 42 0;
#X connect 44 0 19 0;
#X connect 44 0 69 1;
#X connect 45 0 52 0;
#X connect 45 0 60 0;
#X connect 45 0 64 0;
#X connect 46 0 51 0;
#X connect 46 0 52 0;
#X connect 47 0 50 0;
#X connect 47 0 60 1;
#X connect 48 0 79 0;
#X connect 51 0 47 0;
#X connect 52 0 51 0;
#X connect 52 0 60 0;
#X connect 54 0 59 0;
#X connect 54 0 59 1;
#X connect 54 0 56 0;
#X connect 55 0 54 1;
#X connect 56 0 57 0;
#X connect 57 0 58 0;
#X connect 60 0 75 0;
#X connect 60 0 78 0;
#X connect 61 0 45 0;
#X connect 62 0 61 0;
#X connect 63 0 54 0;
#X connect 66 0 21 0;
#X connect 67 0 66 0;
#X connect 68 0 76 0;
#X connect 68 0 63 3;
#X connect 69 0 73 0;
#X connect 69 0 63 2;
#X connect 70 0 72 0;
#X connect 70 0 63 1;
#X connect 71 0 77 0;
#X connect 71 0 63 0;
#X connect 74 0 68 1;
#X connect 74 0 102 0;
#X connect 79 0 71 0;
#X connect 79 1 70 0;
#X connect 79 2 69 0;
#X connect 79 3 68 0;
#X connect 81 0 93 0;
#X connect 82 0 83 0;
#X connect 84 0 80 0;
#X connect 84 0 101 0;
#X connect 85 0 86 0;
#X connect 85 0 95 0;
#X connect 86 0 87 0;
#X connect 88 0 85 0;
#X connect 88 0 85 1;
#X connect 89 0 81 0;
#X connect 89 0 88 0;
#X connect 89 0 96 0;
#X connect 90 0 91 0;
#X connect 90 0 92 0;
#X connect 91 0 100 0;
#X connect 93 0 82 0;
#X connect 93 0 94 0;
#X connect 94 0 97 0;
#X connect 95 0 98 0;
#X connect 99 0 94 0;
#X connect 99 0 95 0;
#X connect 100 0 93 0;
#X connect 101 0 85 0;
#X connect 101 0 90 0;
