#N canvas 1043 223 918 580 12;
#X obj 447 404 osc~ 432;
#X obj 460 494 *~;
#X obj 551 396 vsl 15 128 0 1 0 0 empty empty empty 0 -9 0 10 -262144
-1 -1 0 1;
#X obj 463 547 dac~;
#X obj 194 219 print;
#X obj 49 40 udpreceive 5005;
#X obj 54 102 unpackOSC;
#X obj 81 131 routeOSC /rotation;
#X obj 280 354 moses 1;
#X obj 341 384 + 220;
#X obj 352 425 + 330;
#X obj 48 159 routeOSC /button;
#X obj 59 201 print;
#X msg 250 18 connect 127.0.0.1 1337;
#X obj 250 117 udpsend;
#X obj 359 218 packOSC;
#X msg 386 106 disconnect;
#X obj 267 179 tgl 15 0 empty empty empty 17 7 0 10 -262144 -1 -1 1
1;
#X obj 731 222 f;
#X obj 609 203 unsig~ 1;
#X obj 734 100 bng 31 250 50 0 empty empty empty 17 7 0 10 -262144
-1 -1;
#X floatatom 734 268 5 0 0 0 - - -, f 5;
#X floatatom 413 291 5 0 0 0 - - -, f 5;
#X msg 432 168 send /filter8 \$1 \$2;
#X floatatom 601 276 5 0 0 0 - - -, f 5;
#X obj 474 295 print;
#X obj 659 357 bng 53 250 50 0 empty empty empty 17 7 0 10 -262144
-1 -1;
#X obj 454 237 pack i i;
#X connect 0 0 1 0;
#X connect 1 0 3 0;
#X connect 1 0 3 1;
#X connect 2 0 1 1;
#X connect 5 0 6 0;
#X connect 6 0 7 0;
#X connect 6 0 11 0;
#X connect 7 0 8 0;
#X connect 8 0 10 0;
#X connect 8 1 9 0;
#X connect 9 0 22 0;
#X connect 10 0 22 0;
#X connect 11 0 12 0;
#X connect 13 0 14 0;
#X connect 14 0 17 0;
#X connect 15 0 14 0;
#X connect 16 0 14 0;
#X connect 18 0 21 0;
#X connect 19 0 18 1;
#X connect 20 0 18 0;
#X connect 22 0 0 0;
#X connect 22 0 27 0;
#X connect 23 0 4 0;
#X connect 23 0 15 0;
#X connect 24 0 26 0;
#X connect 24 0 27 1;
#X connect 26 0 27 0;
#X connect 27 0 23 0;
#X connect 27 0 25 0;
