#N canvas 943 226 918 580 12;
#X obj 446 346 osc~ 432;
#X obj 473 436 *~;
#X obj 564 338 vsl 15 128 0 1 0 0 empty empty empty 0 -9 0 10 -262144
-1 -1 0 1;
#X obj 476 489 dac~;
#X obj 194 219 print;
#X obj 49 40 udpreceive 5005;
#X obj 54 102 unpackOSC;
#X obj 81 131 routeOSC /rotation;
#X obj 280 354 moses 1;
#X obj 341 384 + 220;
#X obj 352 425 + 330;
#X obj 48 159 routeOSC /button;
#X obj 59 201 print;
#X msg 250 18 connect 127.0.0.1 1337;
#X obj 250 117 udpsend;
#X obj 305 78 packOSC;
#X msg 386 106 disconnect;
#X obj 267 179 tgl 15 0 empty empty empty 17 7 0 10 -262144 -1 -1 1
1;
#X msg 310 45 send /filter8 hi bye;
#X connect 0 0 1 0;
#X connect 1 0 3 0;
#X connect 1 0 3 1;
#X connect 2 0 1 1;
#X connect 5 0 6 0;
#X connect 6 0 7 0;
#X connect 6 0 11 0;
#X connect 7 0 8 0;
#X connect 8 0 10 0;
#X connect 8 1 9 0;
#X connect 9 0 0 0;
#X connect 10 0 0 0;
#X connect 11 0 12 0;
#X connect 13 0 14 0;
#X connect 14 0 17 0;
#X connect 15 0 14 0;
#X connect 16 0 14 0;
#X connect 18 0 4 0;
#X connect 18 0 15 0;
